<svg xmlns="http://www.w3.org/2000/svg" xmlns:xlink="http://www.w3.org/1999/xlink" width="30" height="30" viewBox="0 0 249.04 249.04"><path d="M211.822 127.919c0 47.577-38.57 86.147-86.147 86.147s-86.147-38.57-86.147-86.147 38.569-86.147 86.147-86.147 86.147 38.569 86.147 86.147z" fill="#2e3436"/><path d="M174-458.64c0 55.781-45.219 101-101 101s-101-45.219-101-101 45.219-101 101-101 101 45.219 101 101z" transform="matrix(.65162 .36922 -.36922 .65162 -90.527 397)" stroke-linejoin="round" stroke="url(#c)" stroke-width="2" fill="none"/><path d="M174-458.64c0 55.781-45.219 101-101 101s-101-45.219-101-101 45.219-101 101-101 101 45.219 101 101z" transform="rotate(29.537 -746.248 49.746) scale(.68658)" stroke-linejoin="round" stroke="url(#c)" stroke-width="2" fill="none"/><path d="M174-458.64c0 55.781-45.219 101-101 101s-101-45.219-101-101 45.219-101 101-101 101 45.219 101 101z" transform="rotate(29.537 -688.484 75.234) scale(.61726)" stroke-linejoin="round" stroke="url(#c)" stroke-width="2" fill="none"/><path d="M174-458.64c0 55.781-45.219 101-101 101s-101-45.219-101-101 45.219-101 101-101 101 45.219 101 101z" transform="rotate(29.537 -613.383 108.368) scale(.52716)" stroke-linejoin="round" stroke="url(#c)" stroke-width="2" fill="none"/><path d="M349.56 440.37c-67.26 0-121.78 54.521-121.78 121.78 0 67.26 54.521 121.78 121.78 121.78 67.26 0 121.78-54.521 121.78-121.78 0-67.26-54.521-121.78-121.78-121.78zm0 15.75c14.403 0 26.094 11.66 26.094 26.062 0 14.403-11.691 26.094-26.094 26.094s-26.094-11.691-26.094-26.094 11.691-26.062 26.094-26.062zm-69.812 39.969a25.89 25.89 0 0113.594 3.469c12.473 7.201 16.764 23.183 9.563 35.656s-23.183 16.733-35.656 9.531c-12.474-7.202-16.702-23.12-9.5-35.594a26.063 26.063 0 0122-13.062zm138.31 0c9.254-.239 18.362 4.487 23.312 13.062 7.202 12.473 2.91 28.424-9.563 35.625-12.473 7.202-28.424 2.942-35.625-9.531-7.201-12.473-2.942-28.486 9.532-35.688a25.939 25.939 0 0112.344-3.469zm-79.375 39.625c2.832-.074 5.64 1.374 7.156 4 2.206 3.82.883 8.7-2.937 10.906-3.82 2.206-8.701.914-10.906-2.906-2.206-3.82-.914-8.732 2.906-10.938a7.951 7.951 0 013.781-1.063zm21.344 0a7.931 7.931 0 014.156 1.062c3.82 2.206 5.143 7.118 2.938 10.938-2.206 3.82-7.086 5.112-10.906 2.907-3.82-2.206-5.143-7.086-2.938-10.906a7.974 7.974 0 012.75-2.813 8 8 0 014-1.187zm-31.75 18.438c4.411 0 7.969 3.589 7.969 8s-3.558 8-7.969 8c-4.411 0-8-3.589-8-8a7.977 7.977 0 014.156-7.031 8.1 8.1 0 013.844-.969zm42.562 0c4.411 0 8 3.589 8 8s-3.589 8-8 8-7.969-3.589-7.969-8a8.005 8.005 0 014.188-7.031 7.854 7.854 0 013.78-.969zm-32.094 18.469a7.875 7.875 0 014.156 1.063c3.82 2.205 5.143 7.086 2.938 10.906-2.206 3.82-7.086 5.143-10.906 2.937-3.82-2.206-5.143-7.117-2.938-10.938a7.798 7.798 0 012.719-2.781 8.134 8.134 0 014.031-1.188zm21.25 0c2.832-.074 5.609 1.342 7.125 3.969 2.206 3.82.914 8.732-2.906 10.938-3.82 2.205-8.732.882-10.938-2.938-2.206-3.82-.883-8.7 2.937-10.906a7.951 7.951 0 013.781-1.062zm-80.406 3.406c9.254-.239 18.361 4.487 23.312 13.062 7.202 12.473 2.91 28.455-9.563 35.656-12.473 7.202-28.392 2.88-35.594-9.594-7.201-12.473-2.973-28.424 9.5-35.625a25.98 25.98 0 0112.344-3.5zm138.62 0a25.937 25.937 0 0113.594 3.5c12.473 7.202 16.764 23.152 9.563 35.625s-23.183 16.764-35.656 9.563-16.733-23.183-9.532-35.656c4.726-8.186 13.22-12.833 22.031-13.031zm-68.656 39.97c14.403 0 26.094 11.69 26.094 26.093s-11.691 26.094-26.094 26.094-26.094-11.69-26.094-26.094 11.691-26.094 26.094-26.094z" fill="url(#d)" transform="translate(-225.48 -436.83)"/><path d="M349.54 528.19c-18.766 0-33.969 15.203-33.969 33.969s15.203 33.969 33.969 33.969 34-15.203 34-33.969-15.234-33.969-34-33.969zm-10.875 7.531c2.832-.073 5.64 1.374 7.156 4 2.206 3.82.883 8.7-2.937 10.906-3.82 2.206-8.701.914-10.906-2.906-2.206-3.82-.914-8.732 2.906-10.938a7.951 7.951 0 013.781-1.063zm21.344 0a7.93 7.93 0 014.156 1.063c3.82 2.205 5.143 7.117 2.938 10.938-2.206 3.82-7.086 5.112-10.906 2.906-3.82-2.206-5.143-7.086-2.938-10.906a7.974 7.974 0 012.75-2.813 8 8 0 014-1.187zm-31.75 18.438c4.411 0 7.969 3.59 7.969 8s-3.558 8-7.969 8c-4.411 0-8-3.589-8-8a7.977 7.977 0 014.156-7.031 8.1 8.1 0 013.844-.969zm42.562 0c4.411 0 8 3.59 8 8 0 4.411-3.589 8-8 8s-7.969-3.589-7.969-8a8.005 8.005 0 014.188-7.031 7.854 7.854 0 013.78-.969zm-32.094 18.47a7.875 7.875 0 014.156 1.062c3.82 2.205 5.143 7.086 2.938 10.906-2.206 3.82-7.086 5.143-10.906 2.937-3.82-2.205-5.143-7.117-2.938-10.938a7.798 7.798 0 012.719-2.781 8.134 8.134 0 014.031-1.188zm21.25 0c2.832-.074 5.609 1.342 7.125 3.968 2.206 3.82.914 8.732-2.906 10.938-3.82 2.206-8.732.883-10.938-2.937-2.206-3.82-.883-8.701 2.937-10.906a7.951 7.951 0 013.782-1.063z" fill="url(#e)" transform="translate(-225.48 -436.83)"/><path d="M70.19 25.3a6.008 6.008 0 00-2.844.813c-2.878 1.662-3.88 5.308-2.219 8.187l32.188 63.594a38.157 38.157 0 00-9.812 16.969l-71.156 3.969c-1.247 0-2.418.354-3.375 1-1.596 1.076-2.625 2.922-2.625 5 0 3.324 2.676 6 6 6l71.156 3.969a38.18 38.18 0 009.781 16.969L65.16 215.364a5.974 5.974 0 002.188 8.187 5.974 5.974 0 008.187-2.187l38.97-59.656a38.37 38.37 0 0019.655 0l38.97 59.656c1.661 2.878 5.34 3.85 8.218 2.187s3.85-5.309 2.188-8.187l-32.156-63.594a38.17 38.17 0 009.78-16.97l71.189-3.968c3.324 0 5.969-2.676 5.969-6s-2.645-6-5.97-6l-71.187-3.969a38.176 38.176 0 00-9.781-16.969L183.535 34.3c1.662-2.879.66-6.526-2.22-8.188a5.962 5.962 0 00-6.124.063c-.824.506-1.512 1.225-2.031 2.125l-39 59.656a38.13 38.13 0 00-9.813-1.281c-3.383 0-6.689.424-9.812 1.25l-39-59.625a5.967 5.967 0 00-5.344-3zm54.125 65.312c18.898 0 34.219 15.32 34.219 34.219 0 18.898-15.32 34.219-34.219 34.219-18.898 0-34.188-15.32-34.188-34.219 0-18.898 15.289-34.219 34.188-34.219z" opacity=".8" stroke-linejoin="round" stroke="#eeeeec" stroke-width="2" fill="none"/><path d="M288.5 454.83c-58.83 33.97-78.99 109.2-45.02 168.03 33.96 58.83 109.19 78.98 168.02 45.02 58.83-33.97 78.99-109.19 45.02-168.02-33.96-58.83-109.19-78.99-168.02-45.03zm1.5 2.598c57.4-33.13 130.79-13.47 163.92 43.93 33.14 57.39 13.48 130.78-43.92 163.92s-130.79 13.47-163.92-43.92c-33.14-57.4-13.48-130.79 43.92-163.93z" fill="url(#f)" transform="translate(-225.48 -436.83)"/><path d="M287.75 453.54c59.55-34.38 135.69-13.98 170.07 45.57 34.38 59.54 13.98 135.69-45.57 170.07s-135.69 13.97-170.07-45.57c-34.38-59.55-13.98-135.7 45.57-170.07zm1.518 2.63c-58.095 33.54-78 107.83-44.459 165.92 33.541 58.095 107.83 78 165.92 44.459 58.095-33.541 78-107.83 44.46-165.92-33.542-58.095-107.83-78-165.92-44.46z" fill="url(#g)" transform="translate(-225.48 -436.83)"/><path d="M162.14 114.79c-1.77-6.496-5.19-12.345-9.812-16.969l32-63.656a5.984 5.984 0 00-2.22-8.187 6.094 6.094 0 00-1.437-.594M135.702 86.946l-.625.969a38.108 38.108 0 00-9.812-1.25 38.43 38.43 0 00-9.813 1.28L76.327 28.385a5.939 5.939 0 00-5.344-2.97 6.007 6.007 0 00-2.843.813c-.32.186-.634.395-.907.625m85.19 124.842a38.107 38.107 0 009.75-16.97l71.188-4.124c3.324-.007 5.945-2.708 5.938-6.032-.007-3.324-2.645-5.975-5.969-5.968m-107.906 44.374a38.144 38.144 0 009.813-1.312l39.094 59.594c1.668 2.875 5.343 3.825 8.218 2.156M87.08 134.818l1.438.063a38.136 38.136 0 009.812 16.938l-31.969 63.656c-1.656 2.882-.694 6.531 2.188 8.187m29.719-125.75v.032a38.198 38.198 0 00-9.781 17l-71.156 4.093a6.048 6.048 0 00-3.375 1.032c-1.594 1.079-2.599 2.922-2.594 5 0 .24.004.486.031.718M125.233 90.6c18.898-.04 34.241 15.258 34.281 34.156.04 18.898-15.227 34.241-34.125 34.281-18.898.04-34.21-15.258-34.25-34.156-.04-18.898 15.195-34.24 34.094-34.28z" opacity=".8" stroke-linejoin="round" stroke="#888a85" stroke-width="2" fill="none"/><g><path d="M134.722 127.35a8.671 8.671 0 11-17.342 0 8.671 8.671 0 0117.342 0z" opacity=".5" fill="#888a85"/><path d="M132.045 124.708a7.753 7.753 0 11-15.505 0 7.753 7.753 0 0115.505 0z" fill="#fff"/><path d="M124.25 119.03c-2.968 0-5.364 2.425-5.364 5.392a5.337 5.337 0 004.107 5.197v3.325h2.514v-3.325a5.337 5.337 0 004.108-5.197c0-2.967-2.397-5.392-5.365-5.392z" fill="#2e3436"/><path d="M17.587-268.82c-1.265-.455-2.17-1.039-3.187-2.056-1.047-1.047-1.6-1.92-2.055-3.243-1.84-5.347 2.283-11.14 7.929-11.14 2.363 0 4.4.833 6.032 2.464 1.687 1.687 2.477 3.585 2.477 5.954 0 2.407-.792 4.304-2.529 6.06-.924.933-2.887 2.02-3.99 2.21l-.593.101v-3.146l.592-.184c2.103-.653 3.694-3.168 3.458-5.466-.202-1.96-1.417-3.643-3.241-4.49-1.259-.583-3.044-.586-4.287-.006-2.79 1.304-3.989 4.683-2.619 7.387.481.95 1.7 2.086 2.658 2.48l.75.308.001 1.541c0 1.765.03 1.74-1.396 1.226z" fill="url(#h)" transform="translate(103.89 401.39)"/></g></svg>